<svg width="419" height="371" viewBox="0 0 419 371" fill="none" xmlns="http://www.w3.org/2000/svg">
<ellipse cx="26.5351" cy="35.3802" rx="26.5351" ry="35.3802" transform="matrix(-0.858304 -0.513142 -0.513142 0.858304 391.44 197.431)" fill="#C13D2A"/>
<ellipse cx="69.9119" cy="164.063" rx="26.5351" ry="35.3802" transform="rotate(-10.621 69.9119 164.063)" fill="#C13D2A"/>
<ellipse cx="38.8677" cy="51.8236" rx="38.8677" ry="51.8236" transform="matrix(-0.858304 -0.513142 -0.513142 0.858304 339.73 90.1226)" fill="#C13D2A"/>
<ellipse cx="156.854" cy="94.3627" rx="38.8677" ry="51.8236" transform="rotate(-10.621 156.854 94.3627)" fill="#C13D2A"/>
<path d="M295.71 322.086C280.838 382.69 204.657 322.07 180.118 316.048C155.58 310.026 59.9904 328.495 74.8627 267.89C89.7349 207.285 151.23 170.288 212.215 185.253C273.2 200.219 310.582 261.481 295.71 322.086Z" fill="#C13D2A"/>
</svg>
