<svg width="155" height="64" viewBox="0 0 155 64" fill="none" xmlns="http://www.w3.org/2000/svg">
<path d="M41.0681 64C42.0157 64 42.6718 63.7084 43.0362 63.0524C43.182 62.6879 43.2549 62.3235 43.2549 61.8132V40.4556C43.2549 30.1047 36.8403 23.7631 26.6353 23.7631C21.0954 23.7631 15.7742 25.4396 12.3483 28.1366C11.5464 28.7198 11.4007 29.3029 11.5464 30.0319C11.6922 30.3963 11.838 30.7608 12.0567 31.1981L13.1501 33.312L14.1706 35.4259C14.8995 36.8109 15.7742 37.394 16.8676 36.738C19.7105 34.9886 22.772 33.9681 25.469 33.9681C29.4052 33.9681 32.0294 35.7904 32.8312 39.2893C32.9041 39.7266 32.977 40.164 33.0499 40.6742C30.28 39.5079 27.1456 38.779 24.3756 38.779C14.2435 38.779 10.2344 44.3189 10.2344 50.6606C10.2344 57.5125 15.4098 62.6879 22.9178 62.6879C23.2822 62.6879 23.7196 62.6879 24.1569 62.615C27.3642 62.3235 30.7902 60.8656 33.0499 58.6788V61.8132C33.0499 63.2711 33.7788 64 35.2367 64H41.0681ZM25.469 53.5763C22.772 53.5763 20.4394 52.41 20.4394 50.369C20.4394 48.2551 22.1159 47.1617 25.469 47.1617C27.8016 47.1617 30.5715 47.672 33.0499 48.6196V48.9111C33.0499 49.3485 32.977 49.7859 32.7583 50.2232C31.8107 52.41 28.4576 53.5763 25.469 53.5763Z" fill="white"/>
<path d="M62.3392 58.8975V12.246C62.3392 10.2778 61.3916 9.33024 59.4235 9.33024H54.6854C52.7173 9.33024 51.7697 10.2778 51.7697 12.246V58.8975C51.7697 60.8656 52.7173 61.8132 54.6854 61.8132H59.4235C61.3916 61.8132 62.3392 60.8656 62.3392 58.8975Z" fill="white"/>
<path d="M76.579 21.7949C79.9321 21.7949 82.7749 18.9521 82.7749 15.5261C82.7749 12.1731 79.9321 9.33024 76.579 9.33024C73.2259 9.33024 70.3831 12.1731 70.3831 15.5261C70.3831 18.9521 73.2259 21.7949 76.579 21.7949ZM81.6815 58.8975V29.7403C81.6815 27.7722 80.7339 26.8246 78.7658 26.8246H74.3922C72.4241 26.8246 71.4765 27.7722 71.4765 29.7403V58.8975C71.4765 60.8656 72.4241 61.8132 74.3922 61.8132H78.7658C80.7339 61.8132 81.6815 60.8656 81.6815 58.8975Z" fill="white"/>
<path d="M103.802 61.8132C105.26 61.8132 105.989 61.0843 105.989 59.6264V36.5193L113.861 36.0091C115.319 35.9362 116.34 34.9157 116.34 33.5307V27.6993C116.34 26.3143 115.902 25.3667 114.299 25.4396L105.989 25.9498V24.4191C106.135 20.41 107.01 18.0774 110.873 18.369L112.987 18.5148C114.372 18.5876 115.101 18.1503 115.319 16.8382L116.267 11.9544C116.34 11.4441 116.413 11.0797 116.34 10.7152C116.267 9.62181 115.757 9.11156 114.809 8.81999C114.517 8.74709 114.153 8.6742 113.716 8.6742L112.695 8.60131L111.602 8.52842C103.146 7.94527 97.0232 12.9749 95.9298 21.4305C95.8569 22.3052 95.784 23.2528 95.784 24.2004V26.6059L91.0459 26.8975C89.9526 26.9703 89.0778 27.5535 88.7863 28.4282C88.6405 28.7198 88.5676 29.0113 88.5676 29.3758V35.2073C88.5676 36.5922 89.0049 37.5398 90.6086 37.4669L95.784 37.1754V59.6264C95.784 60.1367 95.8569 60.5011 96.0027 60.8656C96.3671 61.5216 97.0232 61.8132 97.9708 61.8132H103.802Z" fill="white"/>
<path d="M151.999 64C152.947 64 153.603 63.7084 153.967 63.0524C154.113 62.6879 154.186 62.3235 154.186 61.8132V40.4556C154.186 30.1047 147.772 23.7631 137.566 23.7631C132.027 23.7631 126.705 25.4396 123.279 28.1366C122.478 28.7198 122.332 29.3029 122.478 30.0319C122.623 30.3963 122.769 30.7608 122.988 31.1981L124.081 33.312L125.102 35.4259C125.831 36.8109 126.705 37.394 127.799 36.738C130.642 34.9886 133.703 33.9681 136.4 33.9681C140.336 33.9681 142.961 35.7904 143.762 39.2893C143.835 39.7266 143.908 40.164 143.981 40.6742C141.211 39.5079 138.077 38.779 135.307 38.779C125.175 38.779 121.166 44.3189 121.166 50.6606C121.166 57.5125 126.341 62.6879 133.849 62.6879C134.213 62.6879 134.651 62.6879 135.088 62.615C138.295 62.3235 141.721 60.8656 143.981 58.6788V61.8132C143.981 63.2711 144.71 64 146.168 64H151.999ZM136.4 53.5763C133.703 53.5763 131.371 52.41 131.371 50.369C131.371 48.2551 133.047 47.1617 136.4 47.1617C138.733 47.1617 141.503 47.672 143.981 48.6196V48.9111C143.981 49.3485 143.908 49.7859 143.69 50.2232C142.742 52.41 139.389 53.5763 136.4 53.5763Z" fill="white"/>
<ellipse cx="3.2386" cy="4.31813" rx="3.2386" ry="4.31813" transform="matrix(-0.955867 -0.293799 -0.293799 0.955867 46.0096 17.5012)" fill="white"/>
<ellipse cx="6.92754" cy="22.899" rx="3.2386" ry="4.31813" transform="rotate(-24.4087 6.92754 22.899)" fill="white"/>
<ellipse cx="4.74378" cy="6.32504" rx="4.74378" ry="6.32504" transform="matrix(-0.955867 -0.293799 -0.293799 0.955867 36.759 6.28589)" fill="white"/>
<ellipse cx="15.2055" cy="12.1082" rx="4.74378" ry="6.32504" transform="rotate(-24.4087 15.2055 12.1082)" fill="white"/>
</svg>
