<svg width="97" height="40" viewBox="0 0 97 40" fill="none" xmlns="http://www.w3.org/2000/svg">
<path d="M25.6677 40C26.26 40 26.67 39.8178 26.8978 39.4078C26.9889 39.18 27.0345 38.9522 27.0345 38.6333V25.2847C27.0345 18.8155 23.0254 14.8519 16.6472 14.8519C13.1848 14.8519 9.85903 15.8997 7.7178 17.5854C7.21665 17.9499 7.12554 18.3143 7.21665 18.7699C7.30777 18.9977 7.39889 19.2255 7.53556 19.4988L8.21894 20.82L8.85675 22.1412C9.31233 23.0068 9.85903 23.3713 10.5424 22.9613C12.3192 21.8679 14.2326 21.2301 15.9183 21.2301C18.3784 21.2301 20.0185 22.369 20.5197 24.5558C20.5652 24.8292 20.6108 25.1025 20.6563 25.4214C18.9251 24.6925 16.9661 24.2369 15.2349 24.2369C8.90231 24.2369 6.39661 27.6993 6.39661 31.6629C6.39661 35.9454 9.63124 39.18 14.3237 39.18C14.5515 39.18 14.8249 39.18 15.0982 39.1344C17.1028 38.9522 19.244 38.041 20.6563 36.6743V38.6333C20.6563 39.5445 21.1119 40 22.0231 40H25.6677ZM15.9183 33.4852C14.2326 33.4852 12.7748 32.7563 12.7748 31.4807C12.7748 30.1595 13.8226 29.4761 15.9183 29.4761C17.3761 29.4761 19.1074 29.795 20.6563 30.3873V30.5695C20.6563 30.8428 20.6108 31.1162 20.4741 31.3895C19.8818 32.7563 17.7862 33.4852 15.9183 33.4852Z" fill="#FA6650"/>
<path d="M38.9622 36.811V7.6537C38.9622 6.42363 38.3699 5.83137 37.1399 5.83137H34.1786C32.9485 5.83137 32.3563 6.42363 32.3563 7.6537V36.811C32.3563 38.041 32.9485 38.6333 34.1786 38.6333H37.1399C38.3699 38.6333 38.9622 38.041 38.9622 36.811Z" fill="#FA6650"/>
<path d="M47.8621 13.6218C49.9577 13.6218 51.7345 11.8451 51.7345 9.70382C51.7345 7.60814 49.9577 5.83137 47.8621 5.83137C45.7664 5.83137 43.9896 7.60814 43.9896 9.70382C43.9896 11.8451 45.7664 13.6218 47.8621 13.6218ZM51.0511 36.811V18.5877C51.0511 17.3576 50.4589 16.7653 49.2288 16.7653H46.4953C45.2652 16.7653 44.673 17.3576 44.673 18.5877V36.811C44.673 38.041 45.2652 38.6333 46.4953 38.6333H49.2288C50.4589 38.6333 51.0511 38.041 51.0511 36.811Z" fill="#FA6650"/>
<path d="M64.8766 38.6333C65.7878 38.6333 66.2434 38.1777 66.2434 37.2665V22.8246L71.1637 22.5057C72.0748 22.4601 72.7127 21.8223 72.7127 20.9567V17.312C72.7127 16.4464 72.4393 15.8542 71.437 15.8997L66.2434 16.2186V15.2619C66.3345 12.7562 66.8812 11.2984 69.2958 11.4806L70.617 11.5717C71.4826 11.6173 71.9382 11.3439 72.0748 10.5239L72.6671 7.47147C72.7127 7.15256 72.7582 6.92477 72.7127 6.69698C72.6671 6.0136 72.3482 5.69469 71.7559 5.51246C71.5737 5.4669 71.3459 5.42135 71.0726 5.42135L70.4347 5.37579L69.7514 5.33023C64.4666 4.96576 60.6397 8.10928 59.9563 13.394C59.9108 13.9407 59.8652 14.533 59.8652 15.1252V16.6287L56.9039 16.8109C56.2206 16.8565 55.6739 17.2209 55.4916 17.7676C55.4005 17.9499 55.355 18.1321 55.355 18.3599V22.0045C55.355 22.8701 55.6283 23.4624 56.6306 23.4168L59.8652 23.2346V37.2665C59.8652 37.5855 59.9108 37.8132 60.0019 38.041C60.2297 38.4511 60.6397 38.6333 61.232 38.6333H64.8766Z" fill="#FA6650"/>
<path d="M94.9999 40C95.5921 40 96.0022 39.8178 96.23 39.4078C96.3211 39.18 96.3666 38.9522 96.3666 38.6333V25.2847C96.3666 18.8155 92.3575 14.8519 85.9794 14.8519C82.5169 14.8519 79.1912 15.8997 77.0499 17.5854C76.5488 17.9499 76.4577 18.3143 76.5488 18.7699C76.6399 18.9977 76.731 19.2255 76.8677 19.4988L77.5511 20.82L78.1889 22.1412C78.6445 23.0068 79.1912 23.3713 79.8745 22.9613C81.6513 21.8679 83.5648 21.2301 85.2504 21.2301C87.7106 21.2301 89.3507 22.369 89.8518 24.5558C89.8974 24.8292 89.9429 25.1025 89.9885 25.4214C88.2573 24.6925 86.2983 24.2369 84.567 24.2369C78.2345 24.2369 75.7288 27.6993 75.7288 31.6629C75.7288 35.9454 78.9634 39.18 83.6559 39.18C83.8837 39.18 84.157 39.18 84.4304 39.1344C86.4349 38.9522 88.5762 38.041 89.9885 36.6743V38.6333C89.9885 39.5445 90.4441 40 91.3552 40H94.9999ZM85.2504 33.4852C83.5648 33.4852 82.1069 32.7563 82.1069 31.4807C82.1069 30.1595 83.1547 29.4761 85.2504 29.4761C86.7083 29.4761 88.4395 29.795 89.9885 30.3873V30.5695C89.9885 30.8428 89.9429 31.1162 89.8062 31.3895C89.214 32.7563 87.1183 33.4852 85.2504 33.4852Z" fill="#FA6650"/>
<ellipse cx="2.02413" cy="2.69884" rx="2.02413" ry="2.69884" transform="matrix(-0.955867 -0.293799 -0.293799 0.955867 28.7561 10.9384)" fill="#FA6650"/>
<ellipse cx="4.3297" cy="14.3118" rx="2.02413" ry="2.69884" transform="rotate(-24.4087 4.3297 14.3118)" fill="#FA6650"/>
<ellipse cx="2.96487" cy="3.95316" rx="2.96487" ry="3.95316" transform="matrix(-0.955867 -0.293799 -0.293799 0.955867 22.9744 3.92871)" fill="#FA6650"/>
<ellipse cx="9.50353" cy="7.56761" rx="2.96487" ry="3.95316" transform="rotate(-24.4087 9.50353 7.56761)" fill="#FA6650"/>
</svg>
