<svg width="28" height="26" viewBox="0 0 28 26" fill="none" xmlns="http://www.w3.org/2000/svg">
<path d="M3.99996 12.1666C3.06663 12.1666 2.27774 11.8444 1.63329 11.2C0.988848 10.5555 0.666626 9.76663 0.666626 8.83329C0.666626 7.89996 0.988848 7.11107 1.63329 6.46663C2.27774 5.82218 3.06663 5.49996 3.99996 5.49996C4.93329 5.49996 5.72218 5.82218 6.36663 6.46663C7.01107 7.11107 7.33329 7.89996 7.33329 8.83329C7.33329 9.76663 7.01107 10.5555 6.36663 11.2C5.72218 11.8444 4.93329 12.1666 3.99996 12.1666ZM9.99996 6.83329C9.06663 6.83329 8.27774 6.51107 7.63329 5.86663C6.98885 5.22218 6.66663 4.43329 6.66663 3.49996C6.66663 2.56663 6.98885 1.77774 7.63329 1.13329C8.27774 0.488848 9.06663 0.166626 9.99996 0.166626C10.9333 0.166626 11.7222 0.488848 12.3666 1.13329C13.0111 1.77774 13.3333 2.56663 13.3333 3.49996C13.3333 4.43329 13.0111 5.22218 12.3666 5.86663C11.7222 6.51107 10.9333 6.83329 9.99996 6.83329ZM18 6.83329C17.0666 6.83329 16.2777 6.51107 15.6333 5.86663C14.9888 5.22218 14.6666 4.43329 14.6666 3.49996C14.6666 2.56663 14.9888 1.77774 15.6333 1.13329C16.2777 0.488848 17.0666 0.166626 18 0.166626C18.9333 0.166626 19.7222 0.488848 20.3666 1.13329C21.0111 1.77774 21.3333 2.56663 21.3333 3.49996C21.3333 4.43329 21.0111 5.22218 20.3666 5.86663C19.7222 6.51107 18.9333 6.83329 18 6.83329ZM24 12.1666C23.0666 12.1666 22.2777 11.8444 21.6333 11.2C20.9888 10.5555 20.6666 9.76663 20.6666 8.83329C20.6666 7.89996 20.9888 7.11107 21.6333 6.46663C22.2777 5.82218 23.0666 5.49996 24 5.49996C24.9333 5.49996 25.7222 5.82218 26.3666 6.46663C27.0111 7.11107 27.3333 7.89996 27.3333 8.83329C27.3333 9.76663 27.0111 10.5555 26.3666 11.2C25.7222 11.8444 24.9333 12.1666 24 12.1666ZM6.86663 25.5C5.86663 25.5 5.02774 25.1166 4.34996 24.35C3.67218 23.5833 3.33329 22.6777 3.33329 21.6333C3.33329 20.4777 3.72774 19.4666 4.51663 18.6C5.30551 17.7333 6.08885 16.8777 6.86663 16.0333C7.51107 15.3444 8.06663 14.5944 8.53329 13.7833C8.99996 12.9722 9.55551 12.2111 10.2 11.5C10.6888 10.9222 11.2555 10.4444 11.9 10.0666C12.5444 9.68885 13.2444 9.49996 14 9.49996C14.7555 9.49996 15.4555 9.67774 16.1 10.0333C16.7444 10.3888 17.3111 10.8555 17.8 11.4333C18.4222 12.1444 18.9722 12.9111 19.45 13.7333C19.9277 14.5555 20.4888 15.3222 21.1333 16.0333C21.9111 16.8777 22.6944 17.7333 23.4833 18.6C24.2722 19.4666 24.6666 20.4777 24.6666 21.6333C24.6666 22.6777 24.3277 23.5833 23.65 24.35C22.9722 25.1166 22.1333 25.5 21.1333 25.5C19.9333 25.5 18.7444 25.4 17.5666 25.2C16.3888 25 15.2 24.9 14 24.9C12.8 24.9 11.6111 25 10.4333 25.2C9.25551 25.4 8.06663 25.5 6.86663 25.5Z" fill="#FA6650"/>
</svg>
